HIERARCHY
ROOT Hips
{
	OFFSET 0.000000 0.000000 0.000000 
	CHANNELS 6 Xposition Yposition Zposition Yrotation Zrotation Xrotation 
	JOINT Lumbar
	{
		OFFSET 0.000000 0.000000 0.000000 
		CHANNELS 3 Zrotation Xrotation Yrotation
		JOINT Neck
		{
			OFFSET 0.000000 0.445665 0.000000 
			CHANNELS 3 Zrotation Xrotation Yrotation
			End Site
			{
				OFFSET 0.000000 0.227535 0.000000 
			}
		}
		JOINT RightShoulder
		{
			OFFSET 0.019635 0.377685 0.194865 
			CHANNELS 3 Zrotation Xrotation Yrotation
			JOINT RightElbow
			{
				OFFSET 0.000000 -0.243375 0.000000 
				CHANNELS 2 Zrotation Yrotation
				JOINT RightWrist
				{
					OFFSET 0.000000 -0.264825 0.000000 
					CHANNELS 2 Zrotation Xrotation
					End Site
					{
						OFFSET 0.006600 -0.176220 0.000990 
					}
				}
			}
		}
		JOINT LeftShoulder
		{
			OFFSET 0.019635 0.377685 -0.194865 
			CHANNELS 3 Zrotation Xrotation Yrotation
			JOINT LeftElbow
			{
				OFFSET 0.000000 -0.243375 0.000000 
				CHANNELS 2 Zrotation Yrotation
				JOINT LeftWrist
				{
					OFFSET 0.000000 -0.264825 0.000000 
					CHANNELS 2 Zrotation Xrotation
					End Site
					{
						OFFSET 0.006600 -0.176220 -0.000990 
					}
				}
			}
		}
	}
	JOINT RightHip
	{
		OFFSET 0.052140 -0.069960 0.075570 
		CHANNELS 3 Zrotation Xrotation Yrotation
		JOINT RightKnee
		{
			OFFSET 0.000000 -0.402270 0.000000 
			CHANNELS 1 Zrotation
			JOINT RightAnkle
			{
				OFFSET 0.000000 -0.404085 0.000000 
				CHANNELS 3 Zrotation Xrotation Yrotation
				End Site
				{
					OFFSET 0.204105 -0.089430 0.008415 
				}
			}
		}
	}
	JOINT LeftHip
	{
		OFFSET 0.052140 -0.069960 -0.075570 
		CHANNELS 3 Zrotation Xrotation Yrotation
		JOINT LeftKnee
		{
			OFFSET 0.000000 -0.402270 0.000000 
			CHANNELS 1 Zrotation
			JOINT LeftAnkle
			{
				OFFSET 0.000000 -0.404085 0.000000 
				CHANNELS 3 Zrotation Xrotation Yrotation
				End Site
				{
					OFFSET 0.204105 -0.089430 -0.008415 
				}
			}
		}
	}
}
MOTION
Frames: 31
Frame Time: 0.02
-0.00102 0.00026 0.00064 22.25633 -31.87409 -5.43616 48.55034 2.39201 -4.12164 6.4279 -2.20869 -0.44162 -8.98785 -5.77875 -24.99679 36.95026 175.25508 26.33554 14.09764 -14.13819 25.40966 -24.678 45.70489 -67.15486 -2.69408 5.95813 45.74825 -2.97676 -8.11797 -19.18331 -6.43736 -3.55106 -2.5093 49.22679 3.96595 -1.19848 -24.86111 -6.53359 3.51208 2.53356
-0.00063 0.00024 0.00044 22.35454 -31.80607 -5.45759 48.59263 2.36566 -4.09098 6.25651 -2.18439 -0.44242 -9.63554 -6.44899 -22.83034 36.79777 166.80544 24.11817 12.79956 -14.69786 24.22392 -22.34456 45.68166 -70.52929 -1.4201 5.19243 45.62928 -2.94841 -8.0423 -19.19069 -6.4384 -3.58004 -2.52196 49.12616 4.0408 -0.92322 -24.86476 -6.5252 3.49715 2.51462
-0.00025 0.00022 0.00024 22.45254 -31.73821 -5.47898 48.63482 2.33937 -4.06032 6.08539 -2.16012 -0.44321 -10.28218 -7.11611 -20.67319 36.64559 158.38959 21.90984 11.50662 -15.25685 23.04155 -20.01843 45.65838 -73.8936 -0.14981 4.42909 45.51058 -2.92007 -7.96652 -19.19804 -6.43945 -3.60898 -2.5346 49.02577 4.11545 -0.64872 -24.86839 -6.51683 3.48221 2.49572
0.00014 0.0002 4e-05 22.55046 -31.67038 -5.50035 48.67698 2.31309 -4.02974 5.91448 -2.13589 -0.44401 -10.92801 -7.78405 -18.51404 36.49355 149.96779 19.69982 10.2128 -15.81495 21.85942 -17.6922 45.6352 -77.25765 1.12028 3.66574 45.39195 -2.89179 -7.89102 -19.2054 -6.44048 -3.63788 -2.54723 48.92543 4.19007 -0.3743 -24.87202 -6.50846 3.46731 2.47684
0.00052 0.00018 -0.00017 22.64856 -31.60242 -5.52174 48.71922 2.28677 -3.99919 5.7434 -2.11167 -0.4448 -11.57456 -8.45568 -16.34407 36.34124 141.50776 17.47951 8.91321 -16.37335 20.67403 -15.35862 45.61211 -80.63177 2.39401 2.90002 45.27308 -2.86354 -7.81578 -19.21276 -6.44151 -3.66682 -2.55986 48.82489 4.26488 -0.09912 -24.87567 -6.50009 3.45245 2.45792
0.00091 0.00016 -0.00037 22.74636 -31.53477 -5.54314 48.7613 2.26053 -3.96832 5.57221 -2.08729 -0.4456 -12.22138 -9.11336 -14.21368 36.18935 133.18433 15.29624 7.63418 -16.93356 19.49808 -13.04828 45.58845 -83.97532 3.65702 2.14172 45.15476 -2.83502 -7.73887 -19.2201 -6.44261 -3.69573 -2.57255 48.72481 4.3392 0.17393 -24.87927 -6.49171 3.43735 2.43907
0.00129 0.00014 -0.00057 22.84464 -31.46655 -5.5645 48.80368 2.23416 -3.93812 5.40142 -2.06325 -0.4464 -12.86684 -9.7979 -12.00756 36.0368 124.59991 13.04215 6.31586 -17.48944 18.30448 -10.69385 45.56597 -87.37634 4.94007 1.36938 45.03545 -2.80706 -7.66538 -19.22749 -6.44355 -3.72466 -2.5851 48.6239 4.41441 0.4509 -24.88296 -6.48335 3.42273 2.42011
0.00168 0.00012 -0.00077 22.94248 -31.39887 -5.5859 48.84575 2.20791 -3.90729 5.23027 -2.03889 -0.44719 -13.51373 -10.45857 -9.86845 35.88482 116.24755 10.85098 5.03251 -18.04943 17.12704 -8.37984 45.54237 -90.72498 6.20487 0.60988 44.91708 -2.77859 -7.58879 -19.23483 -6.44464 -3.75358 -2.59777 48.52378 4.48882 0.72437 -24.88657 -6.47498 3.40768 2.40125
0.00206 0.0001 -0.00097 23.03985 -31.33178 -5.60734 48.88757 2.18177 -3.87571 5.05854 -2.01417 -0.44799 -14.16211 -11.08658 -7.82203 35.73362 108.21096 8.74569 3.79658 -18.61443 15.96929 -6.11523 45.51749 -94.0086 7.447 -0.1338 44.7997 -2.74942 -7.5081 -19.2421 -6.44593 -3.78248 -2.61063 48.42448 4.56219 0.99323 -24.89007 -6.46656 3.39202 2.3825
0.00245 8e-05 -0.00118 23.14013 -31.26108 -5.62854 48.93122 2.15492 -3.84853 4.88972 -1.99159 -0.44879 -14.80118 -11.89201 -5.27469 35.5782 98.45398 6.17318 2.30187 -19.15059 14.69802 -3.56632 45.50024 -97.66347 8.81852 -0.96814 44.67614 -2.72408 -7.45004 -19.24975 -6.4461 -3.8115 -2.62252 48.32003 4.64137 1.28765 -24.89416 -6.45834 3.37962 2.36307
0.00282 6e-05 -0.00137 23.23413 -31.19814 -5.65022 48.97077 2.12962 -3.81201 4.71507 -1.96448 -0.44957 -15.46022 -12.32988 -3.76339 35.43152 92.26487 4.56915 1.34412 -19.74743 13.66653 -1.6174 45.46674 -100.53661 9.91762 -1.6114 44.56592 -2.69079 -7.34488 -19.25661 -6.44862 -3.84023 -2.63641 48.22671 4.7084 1.5287 -24.89703 -6.44974 3.36054 2.34511
0.00309 8e-05 -0.00153 23.31177 -31.1556 -5.67337 49.00083 2.10807 -3.74997 4.52169 -1.92498 -0.45032 -16.17196 -11.69245 -5.29819 35.3105 96.4835 5.7943 1.95037 -20.51399 13.29479 -1.32415 45.38944 -101.23926 10.26007 -1.72484 44.49036 -2.63452 -7.104 -19.26105 -6.45772 -3.86848 -2.65631 48.16208 4.74068 1.61697 -24.89621 -6.4396 3.32126 2.33093
0.00333 0.00011 -0.00167 23.38289 -31.12102 -5.69695 49.02647 2.08818 -3.67853 4.32298 -1.88095 -0.45105 -16.9038 -10.6975 -7.83842 35.1981 104.17894 7.96249 3.08027 -21.34056 13.16212 -1.62817 45.29575 -101.16687 10.33243 -1.64816 44.42857 -2.57052 -6.81707 -19.26472 -6.46915 -3.89637 -2.67813 48.10899 4.76094 1.65257 -24.89422 -6.42916 3.27561 2.31827
0.00358 0.00013 -0.00181 23.45644 -31.08336 -5.72025 49.05297 2.06784 -3.61125 4.12851 -1.83893 -0.45178 -17.62834 -9.91071 -9.78244 35.08048 109.8694 9.58405 3.90982 -22.13803 12.92061 -1.65722 45.20893 -101.45908 10.5321 -1.66114 44.36175 -2.51081 -6.55534 -19.2689 -6.47944 -3.92424 -2.69875 48.05183 4.78769 1.71673 -24.89298 -6.41919 3.23412 2.30505
0.00387 0.00015 -0.00197 23.53237 -31.04341 -5.74397 49.08424 2.0462 -3.54432 3.92636 -1.79702 -0.45252 -18.34671 -8.93364 -12.30526 34.96774 117.32557 11.69618 4.99862 -22.94473 12.68599 -1.71662 45.12415 -101.67607 10.7047 -1.65699 44.28973 -2.44771 -6.27522 -19.27243 -6.49009 -3.95295 -2.72078 47.98969 4.81036 1.7623 -24.89082 -6.40783 3.18734 2.29125
0.00407 0.00017 -0.00209 23.60162 -31.01017 -5.76686 49.10461 2.0277 -3.47458 3.73895 -1.7539 -0.45323 -19.08074 -8.264 -13.87493 34.8477 121.97226 13.02227 5.67797 -23.74468 12.48668 -1.83656 45.03169 -101.89286 10.87877 -1.6472 44.23185 -2.38995 -6.0228 -19.27709 -6.50054 -3.97976 -2.74031 47.94069 4.83832 1.83279 -24.89026 -6.39928 3.14999 2.27904
0.00407 0.00015 -0.00211 23.65559 -30.99313 -5.7879 49.09524 2.01697 -3.39801 3.59348 -1.70778 -0.45382 -19.86937 -8.56836 -12.44083 34.69841 117.61541 11.83781 5.04113 -24.52577 12.38822 -2.13383 44.91827 -102.06192 11.04235 -1.63564 44.20924 -2.34796 -5.85581 -19.28544 -6.50993 -4.00184 -2.75258 47.92499 4.88684 1.9967 -24.89476 -6.39867 3.14084 2.27074
0.00399 0.00011 -0.00208 23.70273 -30.98265 -5.80797 49.07516 2.00944 -3.31918 3.46312 -1.66075 -0.45436 -20.66969 -9.18778 -10.03554 34.54282 110.38251 9.84949 3.98451 -25.29504 12.30733 -2.4462 44.79844 -102.29491 11.22934 -1.63015 44.20047 -2.3118 -5.71883 -19.29488 -6.51903 -4.02194 -2.76223 47.92215 4.94055 2.18541 -24.90084 -6.40089 3.14131 2.26403
0.00395 9e-05 -0.00207 23.75204 -30.9694 -5.82815 49.06047 2.00075 -3.24227 3.3258 -1.61465 -0.45493 -21.45438 -9.63813 -8.15759 34.39466 104.72568 8.30098 3.15777 -26.06047 12.17533 -2.64361 44.68395 -102.66322 11.46179 -1.64468 44.18558 -2.27353 -5.56954 -19.30359 -6.52823 -4.04269 -2.77301 47.91349 4.9899 2.35502 -24.90596 -6.40176 3.13696 2.25667
0.0039 6e-05 -0.00205 23.80527 -30.95551 -5.84981 49.04353 1.99083 -3.16127 3.18836 -1.56618 -0.45549 -22.28464 -10.18434 -5.95352 34.22738 98.05945 6.47235 2.18495 -26.86779 12.22589 -3.30104 44.55848 -102.33965 11.45839 -1.56047 44.17033 -2.23263 -5.41263 -19.31327 -6.53768 -4.06452 -2.78417 47.90506 5.04722 2.55557 -24.91205 -6.4029 3.13418 2.24903
0.00385 4e-05 -0.00204 23.84857 -30.94442 -5.86808 49.02864 1.98423 -3.08835 3.05525 -1.52251 -0.45605 -23.02084 -10.61156 -4.18278 34.0985 92.76111 5.02218 1.40894 -27.58315 11.9071 -3.01771 44.45479 -103.44587 11.94225 -1.68075 44.15908 -2.1988 -5.27978 -19.32121 -6.54648 -4.08356 -2.79383 47.89914 5.08938 2.69859 -24.91653 -6.40416 3.13061 2.24236
0.00381 7e-05 -0.00206 23.86806 -30.93924 -5.87785 49.02317 1.98583 -3.03868 2.92703 -1.49214 -0.45665 -23.50765 -10.62387 -3.86341 34.07524 91.9888 4.82709 1.28605 -28.05618 10.48045 0.05149 44.41087 -108.79687 13.8772 -2.40793 44.15424 -2.18219 -5.20229 -19.32402 -6.55388 -4.096 -2.80039 47.89625 5.08779 2.67302 -24.91605 -6.4049 3.12179 2.23766
0.00376 0.00011 -0.00208 23.87752 -30.93663 -5.88415 49.01984 1.99065 -2.99726 2.80343 -1.46661 -0.45726 -23.89621 -10.50846 -4.00766 34.091 92.67211 5.03506 1.37261 -28.43474 8.69735 4.03361 44.38952 -115.52586 16.28087 -3.33284 44.15311 -2.17267 -5.14891 -19.32507 -6.56058 -4.10559 -2.80543 47.89556 5.07082 2.58902 -24.91393 -6.4057 3.11206 2.23397
0.00371 0.00014 -0.00209 23.89026 -30.93296 -5.8916 49.01493 1.99414 -2.95179 2.67975 -1.43912 -0.45786 -24.3218 -10.4602 -3.92036 34.09032 92.63458 5.04277 1.35504 -28.85105 7.12925 7.48363 44.35922 -121.42856 18.40009 -4.14031 44.15101 -2.16059 -5.08715 -19.32698 -6.5674 -4.11607 -2.81089 47.89428 5.06145 2.53524 -24.91264 -6.40654 3.10316 2.22998
0.00369 0.00018 -0.00212 23.90791 -30.92913 -5.90071 49.01262 1.99729 -2.90727 2.54747 -1.41095 -0.45846 -24.78254 -10.38684 -3.87841 34.08458 92.72599 5.08815 1.35754 -29.29053 5.33214 11.43974 44.32324 -128.19529 20.82734 -5.06692 44.14632 -2.14606 -5.01547 -19.32868 -6.57504 -4.12821 -2.81741 47.89164 5.05012 2.46937 -24.91101 -6.40714 3.09259 2.22522
0.00361 0.00021 -0.00212 23.91336 -30.9261 -5.90572 49.00506 2.00171 -2.86305 2.43476 -1.38492 -0.45907 -25.14336 -10.32813 -3.8765 34.09797 92.96086 5.16994 1.37764 -29.65738 3.93459 14.54358 44.30446 -133.4667 22.71676 -5.78901 44.14777 -2.13804 -4.96988 -19.33039 -6.58082 -4.13625 -2.8214 47.89232 5.03863 2.41126 -24.90972 -6.4083 3.08546 2.22249
0.00342 0.00021 -0.00202 23.88474 -30.92504 -5.89883 48.9864 2.01007 -2.81504 2.36855 -1.36693 -0.45966 -25.2787 -10.37053 -3.76525 34.16178 92.97728 5.17683 1.35715 -29.86283 3.66269 15.20426 44.32855 -134.46533 23.0699 -5.92639 44.16472 -2.14792 -4.9897 -19.33246 -6.58154 -4.13342 -2.81855 47.90007 5.0352 2.41762 -24.90945 -6.4104 3.08541 2.22343
0.00318 0.0002 -0.00188 23.84457 -30.92449 -5.8882 48.9616 2.0193 -2.76752 2.32311 -1.3501 -0.46029 -25.31122 -10.42703 -3.69729 34.24256 93.13853 5.22186 1.35444 -29.99444 3.81654 14.95298 44.36925 -133.87808 22.85466 -5.84606 44.18766 -2.16374 -5.03501 -19.33462 -6.58041 -4.1266 -2.81323 47.91117 5.03142 2.42911 -24.90962 -6.41316 3.08927 2.22666
0.00295 0.00019 -0.00175 23.81183 -30.92355 -5.88026 48.93724 2.02733 -2.72151 2.27214 -1.3308 -0.46092 -25.37423 -10.45368 -3.69129 34.31044 93.43188 5.30736 1.37289 -30.15072 3.81874 15.02908 44.40146 -133.88609 22.85662 -5.84644 44.20824 -2.17573 -5.06889 -19.33684 -6.58021 -4.12183 -2.80921 47.92186 5.02446 2.41825 -24.90982 -6.41603 3.09306 2.22998
0.00276 0.00018 -0.00167 23.77029 -30.9238 -5.86806 48.92332 2.03901 -2.66854 2.20433 -1.32066 -0.46144 -25.50501 -10.5668 -3.37941 34.40008 92.98647 5.17412 1.2825 -30.34554 3.63461 15.49605 44.43746 -134.45995 23.04436 -5.92965 44.22779 -2.19278 -5.10268 -19.33862 -6.57969 -4.11612 -2.80448 47.9285 5.03032 2.48658 -24.90909 -6.41725 3.08975 2.2287
0.00249 0.00017 -0.00148 23.74351 -30.92114 -5.86384 48.88562 2.04309 -2.62999 2.17709 -1.29068 -0.46227 -25.46817 -10.5151 -3.6799 34.4498 94.03558 5.48567 1.41083 -30.43838 3.9409 14.93115 44.47043 -133.47561 22.70923 -5.78734 44.25041 -2.20054 -5.14278 -19.34128 -6.5793 -4.11128 -2.80056 47.94364 5.01055 2.39608 -24.91031 -6.42198 3.10199 2.23735
